<?xml version="1.0" standalone="no"?>
<!DOCTYPE svg PUBLIC "-//W3C//DTD SVG 20010904//EN"
 "http://www.w3.org/TR/2001/REC-SVG-20010904/DTD/svg10.dtd">
<svg version="1.0" xmlns="http://www.w3.org/2000/svg"
 width="360.000000pt" height="360.000000pt" viewBox="0 0 360.000000 360.000000"
 preserveAspectRatio="xMidYMid meet">
<metadata>
Created by potrace 1.11, written by Peter Selinger 2001-2013
</metadata>
<g transform="translate(0.000000,360.000000) scale(0.100000,-0.100000)"
fill="#000000" stroke="none">
<path d="M2266 2101 c-2 -9 -7 -29 -10 -46 -4 -16 -9 -41 -12 -55 -3 -14 -7
-36 -10 -50 -3 -14 -19 -88 -35 -165 -17 -77 -46 -214 -65 -305 -19 -91 -37
-174 -40 -185 -2 -11 -7 -36 -10 -55 l-5 -35 570 0 c313 0 572 2 575 5 2 3 7
17 9 30 7 37 64 308 92 435 19 88 74 347 90 426 3 14 -52 16 -571 16 -519 0
-574 -1 -578 -16z"/>
<path d="M1083 1869 c-9 -3 -17 -12 -19 -20 -5 -35 -35 -173 -38 -178 -2 -3
-7 -23 -10 -43 -3 -21 -11 -59 -17 -85 -6 -27 -13 -59 -15 -73 -3 -14 -16 -76
-30 -139 -13 -63 -22 -117 -18 -120 3 -3 192 -6 419 -6 l414 0 16 70 c59 255
126 587 121 592 -7 7 -803 9 -823 2z"/>
<path d="M265 1595 c-7 -5 -27 -80 -44 -165 -18 -85 -34 -163 -37 -172 -5 -17
10 -18 225 -18 127 0 231 3 232 8 0 4 2 14 4 22 28 130 58 272 62 300 l5 35
-218 0 c-130 0 -222 -4 -229 -10z"/>
</g>
</svg>
